<?xml version="1.0" standalone="no"?>
<!DOCTYPE svg PUBLIC "-//W3C//DTD SVG 20010904//EN"
 "http://www.w3.org/TR/2001/REC-SVG-20010904/DTD/svg10.dtd">
<svg version="1.0" xmlns="http://www.w3.org/2000/svg"
 width="1024.000000pt" height="1024.000000pt" viewBox="0 0 1024.000000 1024.000000"
 preserveAspectRatio="xMidYMid meet">

<g transform="translate(0.000000,1024.000000) scale(0.100000,-0.100000)"
fill="#000000" stroke="none">
<path d="M4240 8366 c-156 -35 -396 -132 -600 -244 -382 -209 -621 -431 -825
-767 -166 -273 -260 -542 -306 -873 -48 -355 -34 -574 67 -973 45 -182 80
-273 176 -464 297 -590 800 -1024 1361 -1174 196 -53 285 -65 487 -64 204 0
301 15 481 73 403 132 711 448 811 831 30 117 30 328 -1 443 -47 177 -192 366
-331 433 -208 100 -365 103 -577 12 -25 -11 -48 -17 -51 -15 -7 8 36 62 82
103 96 84 206 118 355 111 107 -6 178 -27 306 -91 158 -78 308 -265 376 -468
28 -82 32 -112 37 -230 10 -281 -59 -512 -229 -766 -156 -232 -446 -440 -749
-538 -185 -59 -277 -76 -462 -82 -338 -12 -633 54 -956 214 -392 194 -698 463
-963 848 -102 148 -165 262 -277 500 -156 333 -218 552 -242 849 -13 152 3
341 55 661 31 185 31 192 3 201 -28 9 -71 -39 -122 -136 -71 -134 -193 -570
-210 -750 -20 -203 -25 -396 -15 -512 22 -260 60 -401 163 -613 133 -275 246
-433 471 -663 354 -363 798 -617 1287 -737 179 -44 260 -55 426 -56 l137 -1
-85 -14 c-127 -22 -374 -21 -495 0 -504 89 -967 321 -1331 669 -140 132 -323
368 -414 532 -28 51 -116 182 -140 208 -23 26 28 -169 65 -248 264 -562 303
-636 448 -834 133 -182 185 -240 346 -386 160 -144 185 -164 356 -277 192
-126 402 -225 598 -282 113 -33 392 -76 537 -83 495 -24 1011 158 1420 500
161 134 277 269 409 472 212 326 335 725 334 1085 -1 234 -35 395 -119 564
-24 49 -42 91 -40 93 5 6 106 -139 144 -207 41 -73 97 -244 116 -350 54 -313
16 -606 -129 -994 -100 -266 -373 -640 -600 -821 -283 -226 -507 -350 -828
-460 -440 -150 -1039 -152 -1487 -5 -248 81 -472 204 -728 399 -239 182 -511
460 -718 736 -59 78 -79 93 -88 68 -17 -43 49 -192 166 -373 258 -401 598
-761 962 -1019 108 -77 368 -241 381 -241 2 0 28 -14 57 -31 169 -100 515
-218 773 -265 123 -22 436 -30 561 -15 232 29 483 87 639 148 110 43 312 143
380 187 28 18 82 51 120 74 273 157 577 459 757 752 67 107 180 344 233 489
50 133 128 408 144 506 39 241 45 334 33 493 -7 86 -21 194 -32 240 -26 110
-25 118 10 50 97 -187 141 -577 97 -858 -64 -406 -165 -706 -344 -1014 -115
-200 -159 -263 -258 -373 -175 -194 -532 -446 -865 -613 -47 -23 -105 -54
-129 -68 -37 -22 -41 -26 -26 -35 20 -11 116 -3 225 19 101 21 425 146 590
229 319 159 516 356 760 755 155 255 241 470 315 787 49 209 65 347 65 549 0
444 -144 909 -397 1282 -110 162 -185 252 -314 377 -147 142 -420 331 -565
391 -21 9 -63 27 -93 41 -155 70 -378 116 -653 133 -219 14 -213 12 -148 35
46 17 81 20 215 19 139 0 181 -5 319 -33 180 -37 265 -68 514 -192 178 -89
271 -146 402 -248 106 -82 304 -273 380 -367 148 -179 313 -474 385 -684 43
-126 110 -412 124 -530 48 -412 -2 -795 -160 -1248 -52 -146 -53 -154 -36
-167 30 -22 61 0 136 95 161 204 339 540 421 795 84 264 140 604 140 855 0
138 -29 397 -61 545 -32 149 -136 450 -200 578 -170 340 -456 660 -816 915
-181 128 -365 219 -598 295 -237 78 -393 101 -670 101 -172 -1 -221 -5 -349
-27 -655 -117 -1134 -448 -1414 -977 -171 -323 -203 -722 -82 -1013 90 -216
251 -386 461 -487 155 -74 339 -93 492 -51 92 25 114 35 225 109 68 45 93 68
129 124 25 37 48 68 50 68 7 0 -10 -55 -33 -107 -29 -67 -85 -127 -193 -207
-166 -123 -258 -151 -460 -144 -177 7 -289 46 -466 163 -155 103 -272 246
-360 442 -128 284 -131 644 -10 975 80 218 186 396 343 579 176 206 312 319
543 452 380 218 856 317 1324 273 342 -32 576 -91 820 -207 140 -65 225 -100
225 -90 0 18 -61 90 -111 133 -134 113 -508 314 -711 382 -197 66 -396 96
-636 96 -238 0 -478 -39 -741 -120 -165 -51 -270 -95 -420 -179 -524 -290
-851 -721 -988 -1301 -52 -218 -82 -283 -97 -209 -11 58 -6 302 8 369 45 210
152 471 269 651 248 384 657 688 1149 853 227 76 389 108 663 132 161 14 211
14 330 4 434 -37 793 -157 1190 -397 324 -195 652 -491 875 -788 115 -152 178
-257 264 -436 31 -64 63 -122 71 -129 13 -11 15 -7 15 26 -1 147 -193 593
-367 851 -111 164 -131 191 -270 351 -319 366 -701 641 -1168 840 -165 71
-264 101 -475 142 -194 39 -307 49 -535 49 -289 1 -451 -23 -725 -106 -267
-80 -589 -253 -820 -440 -214 -173 -430 -440 -569 -701 -158 -300 -251 -606
-282 -937 -14 -148 -6 -393 16 -499 44 -212 130 -451 220 -611 l45 -80 -45 49
c-145 156 -267 416 -341 731 -28 116 -29 128 -28 380 0 253 1 264 33 412 40
193 78 319 136 458 102 242 222 439 396 649 210 252 440 435 739 585 199 101
213 110 199 127 -14 17 -130 17 -209 0z m348 -459 c5 -23 -15 -47 -34 -40 -8
3 -14 18 -14 35 0 25 4 29 22 26 13 -2 24 -11 26 -21z m-373 -242 c0 -23 -5
-31 -21 -33 -16 -2 -23 4 -28 23 -8 33 0 47 27 43 17 -2 22 -10 22 -33z m-270
-210 c0 -37 -28 -46 -45 -15 -16 29 -5 52 22 48 18 -2 23 -9 23 -33z m1815 15
c0 -5 -2 -10 -4 -10 -3 0 -8 5 -11 10 -3 6 -1 10 4 10 6 0 11 -4 11 -10z
m-2722 -152 c-4 -29 -38 -38 -38 -10 0 22 8 32 27 32 9 0 13 -8 11 -22z m752
-94 c0 -17 -22 -14 -28 4 -2 7 3 12 12 12 9 0 16 -7 16 -16z m757 -86 c-3 -8
-6 -5 -6 6 -1 11 2 17 5 13 3 -3 4 -12 1 -19z m-881 -24 c8 -29 -7 -49 -31
-41 -34 14 -31 67 4 67 14 0 23 -9 27 -26z m-770 -61 c-4 -25 -26 -28 -26 -4
0 12 6 21 14 21 8 0 13 -8 12 -17z m1474 -97 c0 -8 -5 -18 -11 -22 -14 -8 -33
11 -25 25 10 16 36 13 36 -3z m-190 -79 c0 -20 -1 -20 -16 -5 -9 9 -13 21 -9
27 10 16 25 3 25 -22z m-680 8 c0 -8 -4 -15 -10 -15 -5 0 -10 7 -10 15 0 8 5
15 10 15 6 0 10 -7 10 -15z m1888 -18 c2 -18 -1 -27 -11 -27 -21 0 -40 27 -33
46 10 25 41 12 44 -19z m232 13 c24 -24 25 -38 3 -62 -19 -21 -46 -24 -60 -5
-21 27 -22 48 -3 67 25 25 35 25 60 0z m430 1 c12 -23 5 -47 -17 -55 -22 -9
-33 2 -33 33 0 44 30 58 50 22z m440 4 c0 -8 -4 -15 -10 -15 -5 0 -10 7 -10
15 0 8 5 15 10 15 6 0 10 -7 10 -15z m-3610 -45 c0 -5 -2 -10 -4 -10 -3 0 -8
5 -11 10 -3 6 -1 10 4 10 6 0 11 -4 11 -10z m3900 -64 c0 -2 -7 -9 -15 -16
-12 -10 -15 -10 -15 4 0 9 7 16 15 16 8 0 15 -2 15 -4z m-1521 -40 c7 -8 11
-27 9 -43 -4 -34 -44 -45 -65 -17 -17 23 -16 39 3 58 19 20 38 20 53 2z
m-2431 -34 c3 -16 -2 -22 -16 -22 -21 0 -36 25 -26 41 10 17 39 5 42 -19z
m1292 6 c0 -16 -3 -19 -11 -11 -6 6 -8 16 -5 22 11 17 16 13 16 -11z m2238
-14 c3 -23 -21 -49 -38 -39 -11 7 -14 48 -3 59 13 13 38 1 41 -20z m-2358 -19
c0 -18 -5 -25 -20 -25 -20 0 -28 28 -13 43 15 16 33 6 33 -18z m2672 -131 c11
-22 10 -28 -7 -40 -26 -20 -34 -18 -47 12 -11 22 -10 28 7 40 26 20 34 18 47
-12z m276 -22 c4 -27 -22 -40 -43 -22 -8 7 -15 21 -15 32 0 30 54 21 58 -10z
m-2107 -4 c10 -18 8 -24 -7 -35 -23 -17 -29 -16 -44 2 -16 19 -3 55 20 55 11
0 25 -10 31 -22z m-2051 -44 c11 -12 11 -18 -2 -31 -19 -18 -38 -10 -38 16 0
33 20 40 40 15z m4456 -68 c63 -63 43 -148 -42 -176 -26 -9 -39 -8 -63 4 -36
19 -71 62 -71 88 0 36 31 86 63 102 49 24 75 20 113 -18z m-3362 -32 c7 -18
-21 -31 -35 -17 -13 13 0 43 16 37 7 -3 16 -12 19 -20z m736 12 c28 -35 -11
-93 -47 -70 -19 12 -28 46 -19 70 7 18 50 18 66 0z m-1305 -36 c0 -32 -30 -39
-45 -10 -14 26 -4 42 23 38 16 -2 22 -10 22 -28z m445 -115 c0 -16 -6 -25 -15
-25 -16 0 -19 9 -9 34 9 25 24 19 24 -9z m1615 -25 c89 -10 175 -34 175 -50 0
-4 -46 -11 -102 -14 -229 -16 -326 -44 -471 -140 -144 -95 -302 -282 -359
-424 -19 -49 -22 -76 -23 -189 0 -72 -3 -126 -8 -120 -26 40 -47 146 -47 236
0 233 91 390 323 562 94 70 135 94 189 110 122 37 191 44 323 29z m2015 -44
c0 -8 -4 -17 -9 -21 -12 -7 -24 12 -16 25 9 15 25 12 25 -4z m280 -32 c0 -17
-22 -14 -28 4 -2 7 3 12 12 12 9 0 16 -7 16 -16z m-3292 -117 c2 -18 -2 -29
-12 -33 -22 -9 -46 14 -46 43 0 21 4 24 28 21 21 -2 28 -9 30 -31z m2002 -82
c16 -30 4 -64 -26 -71 -33 -8 -52 1 -66 32 -11 24 -10 29 14 49 32 27 60 24
78 -10z m1450 15 c0 -5 -5 -10 -11 -10 -5 0 -7 5 -4 10 3 6 8 10 11 10 2 0 4
-4 4 -10z m-192 -206 c3 -32 -21 -68 -41 -61 -6 2 -19 15 -30 29 -16 21 -17
29 -7 47 9 17 19 21 43 19 28 -3 32 -7 35 -34z m-4814 10 c41 -41 14 -104 -46
-104 -56 0 -76 83 -26 108 33 15 54 14 72 -4z m5106 -20 c0 -17 -22 -14 -28 4
-2 7 3 12 12 12 9 0 16 -7 16 -16z m-3615 -24 c21 -23 14 -60 -15 -78 -47 -29
-94 44 -50 80 28 23 43 23 65 -2z m3533 -112 c18 -18 14 -46 -9 -58 -39 -22
-70 37 -31 59 22 13 26 13 40 -1z m162 -132 c0 -3 -4 -8 -10 -11 -5 -3 -10 -1
-10 4 0 6 5 11 10 11 6 0 10 -2 10 -4z m-1300 -103 c0 -32 -2 -34 -27 -31 -34
4 -45 45 -18 64 26 20 45 6 45 -33z m-1575 -2 c52 -23 102 -81 111 -126 11
-62 0 -141 -27 -180 -35 -52 -116 -90 -176 -81 -93 12 -160 71 -184 159 -23
87 22 185 104 223 62 28 117 30 172 5z m-869 -52 c10 -17 -13 -36 -27 -22 -12
12 -4 33 11 33 5 0 12 -5 16 -11z m1320 -31 c4 -15 1 -25 -11 -34 -25 -18 -45
-6 -45 27 0 24 4 29 24 29 17 0 27 -7 32 -22z m1514 -30 c0 -18 -2 -20 -9 -8
-6 8 -7 18 -5 22 9 14 14 9 14 -14z m-140 -114 c0 -8 -5 -12 -10 -9 -6 4 -8
11 -5 16 9 14 15 11 15 -7z m-3942 -96 c2 -19 -2 -28 -18 -33 -24 -8 -50 10
-50 35 0 24 10 31 40 28 19 -2 26 -10 28 -30z m2709 -14 c8 -20 -21 -49 -41
-41 -9 4 -16 18 -16 32 0 20 5 25 25 25 14 0 28 -7 32 -16z m-1239 -22 c4 -28
-24 -40 -45 -19 -21 21 -9 49 19 45 15 -2 24 -11 26 -26z m3512 -62 c0 -5 -4
-10 -9 -10 -6 0 -13 5 -16 10 -3 6 1 10 9 10 9 0 16 -4 16 -10z m-4780 -100
c0 -24 -26 -38 -42 -22 -16 16 -2 42 22 42 13 0 20 -7 20 -20z m1523 -4 c7
-16 -1 -26 -20 -26 -7 0 -13 9 -13 20 0 23 25 27 33 6z m217 -72 c0 -26 -1
-27 -24 -18 -19 7 -21 25 -4 42 16 16 28 6 28 -24z m3100 16 c0 -5 -2 -10 -4
-10 -3 0 -8 5 -11 10 -3 6 -1 10 4 10 6 0 11 -4 11 -10z m-2408 -37 c36 -32
13 -93 -36 -93 -45 0 -63 55 -29 92 20 22 41 23 65 1z m581 -48 c4 -8 2 -17
-3 -20 -6 -4 -10 -4 -10 -1 0 2 -3 11 -6 20 -3 9 -2 16 4 16 5 0 12 -7 15 -15z
m-2433 -5 c0 -5 -4 -10 -10 -10 -5 0 -10 5 -10 10 0 6 5 10 10 10 6 0 10 -4
10 -10z m-590 -25 c0 -8 -7 -15 -15 -15 -16 0 -20 12 -8 23 11 12 23 8 23 -8z
m3784 -11 c60 -59 -6 -146 -72 -97 -36 27 -39 57 -8 88 29 29 58 32 80 9z
m-3422 -81 c25 -23 25 -89 -1 -103 -47 -25 -101 6 -101 57 0 55 61 83 102 46z
m328 -44 c0 -5 -7 -9 -15 -9 -15 0 -20 12 -9 23 8 8 24 -1 24 -14z m2340 -5
c0 -33 -33 -30 -38 4 -3 17 2 22 17 22 16 0 21 -6 21 -26z m-3570 -29 c26 -31
-18 -71 -47 -42 -19 19 -8 57 16 57 10 0 24 -7 31 -15z m2890 -20 c15 -18 6
-45 -15 -45 -18 0 -30 24 -21 45 7 19 20 19 36 0z m620 -66 c0 -5 -4 -9 -10
-9 -5 0 -10 7 -10 16 0 8 5 12 10 9 6 -3 10 -10 10 -16z m-2150 -100 c31 -57
-30 -98 -66 -44 -16 24 -16 27 1 45 23 26 51 25 65 -1z m-1270 -4 c0 -8 -4
-15 -9 -15 -13 0 -22 16 -14 24 11 11 23 6 23 -9z m3438 -34 c8 -4 12 -19 10
-32 -4 -33 -53 -40 -63 -9 -11 36 22 61 53 41z m-1040 -43 c22 -22 14 -67 -13
-80 -21 -9 -28 -8 -45 7 -36 32 -20 85 25 85 12 0 26 -5 33 -12z m-2271 -64
c8 -21 -13 -42 -28 -27 -13 13 -5 43 11 43 6 0 13 -7 17 -16z m1827 -10 c18
-18 19 -24 7 -42 -11 -18 -41 -12 -54 10 -8 12 -7 21 2 32 17 20 26 20 45 0z
m1269 -154 c7 -26 -16 -55 -37 -47 -16 6 -22 47 -9 60 13 14 41 6 46 -13z
m803 -5 c7 -27 -9 -55 -31 -55 -22 0 -38 28 -31 55 5 18 13 25 31 25 18 0 26
-7 31 -25z m-3556 -61 c0 -9 -5 -14 -12 -12 -18 6 -21 28 -4 28 9 0 16 -7 16
-16z m2600 -168 c28 -34 -11 -94 -44 -67 -21 18 -20 57 2 70 23 14 28 13 42
-3z m-3190 -56 c0 -11 -4 -20 -10 -20 -5 0 -10 9 -10 20 0 11 5 20 10 20 6 0
10 -9 10 -20z m3987 -162 c-3 -8 -6 -5 -6 6 -1 11 2 17 5 13 3 -3 4 -12 1 -19z
m-3677 -19 c0 -11 -11 -11 -29 0 -7 5 -10 14 -6 20 5 9 10 9 21 0 8 -6 14 -15
14 -20z m2630 -8 c0 -11 -4 -22 -9 -25 -12 -8 -34 21 -26 34 11 17 35 11 35
-9z m-215 -81 c8 -26 -2 -57 -22 -64 -19 -8 -53 20 -53 44 0 40 63 57 75 20z
m-2235 -55 c0 -29 -34 -36 -44 -9 -8 21 1 34 25 34 14 0 19 -7 19 -25z m1941
3 c10 -18 8 -24 -7 -35 -24 -17 -48 -13 -52 10 -9 47 37 66 59 25z m1513 -107
c34 -38 -8 -88 -45 -55 -24 21 -24 50 -1 63 24 14 26 14 46 -8z m-1770 -32
c44 -52 29 -113 -34 -139 -56 -23 -120 28 -120 96 0 74 104 103 154 43z
m-1047 -7 c6 -4 17 -21 23 -37 9 -24 8 -33 -8 -54 -27 -36 -55 -38 -81 -5 -27
34 -27 52 1 81 22 23 44 29 65 15z m-397 -143 c0 -5 -4 -9 -10 -9 -5 0 -10 7
-10 16 0 8 5 12 10 9 6 -3 10 -10 10 -16z m1060 11 c0 -5 -2 -10 -4 -10 -3 0
-8 5 -11 10 -3 6 -1 10 4 10 6 0 11 -4 11 -10z m-267 -90 c3 -10 -1 -27 -8
-36 -22 -31 -66 4 -51 41 8 22 53 19 59 -5z m-243 -5 c0 -8 -4 -15 -10 -15 -5
0 -10 7 -10 15 0 8 5 15 10 15 6 0 10 -7 10 -15z m2552 -50 c12 -27 -2 -55
-28 -55 -19 0 -46 44 -38 64 10 25 53 20 66 -9z m-337 -66 c26 -25 30 -37 30
-80 0 -45 -4 -54 -33 -80 -58 -52 -149 -33 -178 38 -21 49 -17 79 16 117 47
53 113 55 165 5z m-708 -471 c-3 -8 -6 -5 -6 6 -1 11 2 17 5 13 3 -3 4 -12 1
-19z m-765 -175 c25 -22 23 -59 -4 -77 -19 -13 -25 -14 -43 -2 -26 18 -31 53
-9 77 21 23 32 24 56 2z m268 -8 c0 -20 -5 -25 -25 -25 -18 0 -25 5 -25 18 0
24 8 32 32 32 13 0 18 -7 18 -25z m-905 -15 c3 -5 1 -10 -4 -10 -6 0 -11 5
-11 10 0 6 2 10 4 10 3 0 8 -4 11 -10z m1115 -51 c0 -24 -23 -21 -28 4 -2 10
3 17 12 17 10 0 16 -9 16 -21z"/>
</g>
</svg>
